:SAMPLES-PER-SECOND 30
:FULLY-SPECIFIED
:DEGREES
1345
root  -31.8128 39.7036 -10.556 -2.46738 14.0518 -1.26883
RightUpLeg  -0.620554 -15.2504 -8.59096
RightLeg  15.4984 0.94725 3.21728
RightFoot  -10.8138 -0.106622 7.16072
RightToes  5.82063e-011 0 -3.6325e-017
Spine  8.86913 -0.438302 17.2392
Spine1  3.89706 2.38719 -6.35085
HEad  -21.0307 39.8898 -18.3156
LeftShoulder1  -0.40384 4.58731 -31.132
LeftArm  0.44743 16.1973 -36.9324
LeftForeArm  10.9286 -18.9594 -5.07963
LeftHand  -0.0239624 5.36879 4.34241
RightShoulder  -0.567681 -5.15833 27.5444
RightArm  18.5189 -0.902174 39.7178
RightForeArm  -3.31089 18.557 5.39589
RightHand  -0.41586 4.71183 -5.06608
LeftUpLeg  -15.8476 1.86484 -0.205131
LeftLeg  48.8618 0.0640591 0.526822
LeftFoot  -3.49666 0.138933 -1.70444
LeftToes  1.54581e-011 7.46816e-011 -4.69922e-011
1346
root  -31.99 39.7952 -10.0212 -2.11316 18.0558 -0.638092
RightUpLeg  1.33659 -15.288 -9.18654
RightLeg  14.4597 -2.50734 2.94445
RightFoot  -11.028 -0.0939239 6.97124
RightToes  5.82063e-011 0 -3.6325e-017
Spine  8.90226 -0.249187 16.4801
Spine1  3.53597 2.33365 -5.94439
HEad  -21.0998 37.974 -18.4893
LeftShoulder1  -0.383464 4.52732 -31.3324
LeftArm  0.358984 16.3713 -38.0492
LeftForeArm  11.8454 -17.4652 -5.63393
LeftHand  0.011537 6.33152 4.98354
RightShoulder  -0.569203 -5.17355 27.3226
RightArm  18.0156 -1.342 39.1118
RightForeArm  -3.54968 20.2722 5.0627
RightHand  -0.402207 4.41334 -5.03218
LeftUpLeg  -17.4537 4.18512 -1.19288
LeftLeg  44.8254 -0.899912 -0.556626
LeftFoot  -4.05998 0.114187 -1.31003
LeftToes  1.54581e-011 7.46816e-011 -4.69922e-011
1347
root  -32.1152 39.8519 -9.4785 -1.50006 21.7178 -0.0997925
RightUpLeg  2.82808 -14.8581 -9.24059
RightLeg  13.5485 -6.38534 2.3653
RightFoot  -11.3937 -0.074121 7.26461
RightToes  5.82063e-011 0 -3.6325e-017
Spine  8.65277 0.00763014 15.9985
Spine1  3.3573 2.43569 -6.06966
HEad  -22.0093 35.2948 -17.9519
LeftShoulder1  -0.336806 4.39691 -31.5732
LeftArm  -0.695222 16.2103 -38.615
LeftForeArm  14.4148 -15.157 -6.43447
LeftHand  0.00383796 6.27664 4.31539
RightShoulder  -0.526147 -5.05141 27.1931
RightArm  17.8133 -1.27746 38.7975
RightForeArm  -4.59133 20.5812 5.09276
RightHand  -0.48599 4.81662 -5.82015
LeftUpLeg  -18.8496 6.84686 -2.38815
LeftLeg  39.337 -1.47544 -0.929524
LeftFoot  -4.83757 0.0839407 -0.833783
LeftToes  1.54581e-011 7.46816e-011 -4.69922e-011
1348
root  -32.1579 39.9172 -8.93675 -0.852112 25.139 0.738586
RightUpLeg  4.5832 -14.8879 -9.72562
RightLeg  12.3463 -9.70986 2.17075
RightFoot  -11.6073 -0.0617534 7.37859
RightToes  5.82063e-011 0 -3.6325e-017
Spine  8.56058 0.219746 15.194
Spine1  3.28639 2.54856 -6.41904
HEad  -22.339 34.2303 -17.8037
LeftShoulder1  -0.353975 4.43594 -31.8415
LeftArm  -2.20412 16.1608 -39.1129
LeftForeArm  17.6469 -13.1601 -7.00647
LeftHand  0.00941894 6.72922 3.60648
RightShoulder  -0.541557 -5.09798 27.182
RightArm  18.3745 -1.1102 38.2632
RightForeArm  -5.01577 20.6897 5.13188
RightHand  -0.458147 4.85054 -5.48419
LeftUpLeg  -19.3057 9.77859 -4.13556
LeftLeg  32.0392 -1.69419 -0.794373
LeftFoot  -4.7847 0.0649003 -0.535193
LeftToes  1.54581e-011 7.46816e-011 -4.69922e-011
1349
root  -32.1303 39.9932 -8.37497 -0.294159 28.2188 1.48822
RightUpLeg  6.73287 -14.6338 -10.0426
RightLeg  10.4713 -12.8925 2.26297
RightFoot  -11.4462 -0.0712271 7.23971
RightToes  5.82063e-011 0 -3.6325e-017
Spine  8.40898 0.399536 14.524
Spine1  3.51913 2.75268 -7.13702
HEad  -21.0306 35.005 -19.0758
LeftShoulder1  -0.35053 4.42712 -31.8296
LeftArm  -3.17895 16.5266 -39.4513
LeftForeArm  20.2397 -11.5495 -7.39802
LeftHand  -0.00347971 6.82109 2.46796
RightShoulder  -0.573037 -5.18633 27.2956
RightArm  18.7717 -0.438127 38.1893
RightForeArm  -4.70544 19.4259 5.27585
RightHand  -0.479361 4.84174 -5.73188
LeftUpLeg  -18.9066 13.6194 -6.18683
LeftLeg  23.3381 -1.76145 -0.31977
LeftFoot  -4.45897 0.0821023 -0.803174
LeftToes  1.54581e-011 7.46816e-011 -4.69922e-011
1350
root  -32.0277 40.0192 -7.79766 0.107574 31.0486 1.80905
RightUpLeg  8.8601 -13.995 -9.706
RightLeg  8.46073 -16.2692 2.33891
RightFoot  -11.3295 -0.0778508 7.48896
RightToes  5.82063e-011 0 -3.6325e-017
Spine  8.2499 0.528579 14.0673
Spine1  3.70598 2.90277 -7.62627
HEad  -21.7811 33.0341 -18.8381
LeftShoulder1  -0.326746 4.36511 -31.8053
LeftArm  -4.63976 17.2261 -39.8881
LeftForeArm  22.5421 -9.8822 -7.5306
LeftHand  -0.00466534 7.17327 2.03082
RightShoulder  -0.596583 -5.24759 27.47
RightArm  19.4177 0.122628 37.9364
RightForeArm  -4.35174 18.067 5.62818
RightHand  -0.446733 5.20208 -5.19492
LeftUpLeg  -18.0486 15.1549 -7.17598
LeftLeg  14.5119 2.10425 -0.274926
LeftFoot  -4.22136 0.109036 -1.2256
LeftToes  1.54581e-011 7.46816e-011 -4.69922e-011
1351
root  -31.839 39.9862 -7.18929 0.455322 33.5981 1.80316
RightUpLeg  10.8326 -13.6642 -9.28359
RightLeg  6.71605 -18.92 2.88085
RightFoot  -11.386 -0.0742825 7.87648
RightToes  5.82063e-011 0 -3.6325e-017
Spine  8.14405 0.639038 13.504
Spine1  3.66169 2.94808 -7.58667
HEad  -22.4458 30.8225 -17.7136
LeftShoulder1  -0.317671 4.33666 -32.0103
LeftArm  -5.49637 18.35 -39.9066
LeftForeArm  23.5535 -8.70536 -7.5185
LeftHand  0.00398814 7.84942 2.05923
RightShoulder  -0.579866 -5.20461 27.3349
RightArm  19.5763 0.743932 38.0476
RightForeArm  -3.59147 15.9636 6.28909
RightHand  -0.474628 5.12175 -5.53486
LeftUpLeg  -16.2778 6.91595 -4.58127
LeftLeg  5.66289 16.4672 -2.69182
LeftFoot  -3.83032 0.126354 -1.50164
LeftToes  1.54581e-011 7.46816e-011 -4.69922e-011
1352
root  -31.531 39.8773 -6.52885 0.792206 36.2086 1.81934
RightUpLeg  12.8631 -13.6155 -9.12009
RightLeg  5.37691 -21.0509 3.63632
RightFoot  -11.7645 -0.0485428 8.52781
RightToes  5.82063e-011 0 -3.6325e-017
Spine  7.55107 0.735614 13.0166
Spine1  4.14872 3.0535 -7.70131
HEad  -22.0785 29.1744 -16.7933
LeftShoulder1  -0.313036 4.32301 -32.0673
LeftArm  -5.66433 19.1609 -39.7887
LeftForeArm  24.2471 -7.6982 -7.59437
LeftHand  -0.0104609 7.65919 1.51897
RightShoulder  -0.612866 -5.27922 27.7929
RightArm  18.8075 0.683314 37.7799
RightForeArm  -1.66286 14.6618 6.60293
RightHand  -0.404946 4.58157 -5.00223
LeftUpLeg  -15.2078 1.85948 -4.28784
LeftLeg  -1.94545 26.1256 -3.89321
LeftFoot  -3.41681 0.153226 -1.92916
LeftToes  1.54581e-011 7.46816e-011 -4.69922e-011
